<?xml version="1.0" encoding="UTF-8" standalone="no"?>
<!-- This is a Stata 18.0 generated SVG file (http://www.stata.com) -->

<svg version="1.1" width="7.500in" height="4.500in" viewBox="0 0 5400 3240" xmlns="http://www.w3.org/2000/svg" xmlns:xlink="http://www.w3.org/1999/xlink">
	<desc>Stata Graph - Graph</desc>
	<rect x="0" y="0" width="5400" height="3240" style="fill:#FFFFFF;stroke:none"/>
	<rect x="0.00" y="0.00" width="5400.00" height="3240.00" style="fill:#FFFFFF"/>
	<rect x="3.24" y="3.24" width="5393.52" height="3233.52" style="fill:none;stroke:#FFFFFF;stroke-width:6.48"/>
	<rect x="557.89" y="113.40" width="2815.59" height="2653.26" style="fill:#FFFFFF"/>
	<rect x="561.13" y="116.64" width="2809.11" height="2646.78" style="fill:none;stroke:#FFFFFF;stroke-width:6.48"/>
	<line x1="557.89" y1="2766.66" x2="622.69" y2="2766.66" style="stroke:#F0F0F0;stroke-width:9.72"/>
	<line x1="655.09" y1="2766.66" x2="719.89" y2="2766.66" style="stroke:#F0F0F0;stroke-width:9.72"/>
	<line x1="752.29" y1="2766.66" x2="817.09" y2="2766.66" style="stroke:#F0F0F0;stroke-width:9.72"/>
	<line x1="849.49" y1="2766.66" x2="914.29" y2="2766.66" style="stroke:#F0F0F0;stroke-width:9.72"/>
	<line x1="946.69" y1="2766.66" x2="1011.49" y2="2766.66" style="stroke:#F0F0F0;stroke-width:9.72"/>
	<line x1="1043.89" y1="2766.66" x2="1108.69" y2="2766.66" style="stroke:#F0F0F0;stroke-width:9.72"/>
	<line x1="1141.09" y1="2766.66" x2="1205.89" y2="2766.66" style="stroke:#F0F0F0;stroke-width:9.72"/>
	<line x1="1238.29" y1="2766.66" x2="1303.09" y2="2766.66" style="stroke:#F0F0F0;stroke-width:9.72"/>
	<line x1="1335.49" y1="2766.66" x2="1400.29" y2="2766.66" style="stroke:#F0F0F0;stroke-width:9.72"/>
	<line x1="1432.69" y1="2766.66" x2="1497.49" y2="2766.66" style="stroke:#F0F0F0;stroke-width:9.72"/>
	<line x1="1529.89" y1="2766.66" x2="1594.69" y2="2766.66" style="stroke:#F0F0F0;stroke-width:9.72"/>
	<line x1="1627.09" y1="2766.66" x2="1691.89" y2="2766.66" style="stroke:#F0F0F0;stroke-width:9.72"/>
	<line x1="1724.29" y1="2766.66" x2="1789.09" y2="2766.66" style="stroke:#F0F0F0;stroke-width:9.72"/>
	<line x1="1821.49" y1="2766.66" x2="1886.29" y2="2766.66" style="stroke:#F0F0F0;stroke-width:9.72"/>
	<line x1="1918.69" y1="2766.66" x2="1983.49" y2="2766.66" style="stroke:#F0F0F0;stroke-width:9.72"/>
	<line x1="2015.89" y1="2766.66" x2="2080.69" y2="2766.66" style="stroke:#F0F0F0;stroke-width:9.72"/>
	<line x1="2113.09" y1="2766.66" x2="2177.89" y2="2766.66" style="stroke:#F0F0F0;stroke-width:9.72"/>
	<line x1="2210.29" y1="2766.66" x2="2275.09" y2="2766.66" style="stroke:#F0F0F0;stroke-width:9.72"/>
	<line x1="2307.49" y1="2766.66" x2="2372.29" y2="2766.66" style="stroke:#F0F0F0;stroke-width:9.72"/>
	<line x1="2404.69" y1="2766.66" x2="2469.49" y2="2766.66" style="stroke:#F0F0F0;stroke-width:9.72"/>
	<line x1="2501.89" y1="2766.66" x2="2566.69" y2="2766.66" style="stroke:#F0F0F0;stroke-width:9.72"/>
	<line x1="2599.09" y1="2766.66" x2="2663.89" y2="2766.66" style="stroke:#F0F0F0;stroke-width:9.72"/>
	<line x1="2696.29" y1="2766.66" x2="2761.09" y2="2766.66" style="stroke:#F0F0F0;stroke-width:9.72"/>
	<line x1="2793.49" y1="2766.66" x2="2858.29" y2="2766.66" style="stroke:#F0F0F0;stroke-width:9.72"/>
	<line x1="2890.69" y1="2766.66" x2="2955.49" y2="2766.66" style="stroke:#F0F0F0;stroke-width:9.72"/>
	<line x1="2987.89" y1="2766.66" x2="3052.69" y2="2766.66" style="stroke:#F0F0F0;stroke-width:9.72"/>
	<line x1="3085.09" y1="2766.66" x2="3149.89" y2="2766.66" style="stroke:#F0F0F0;stroke-width:9.72"/>
	<line x1="3182.29" y1="2766.66" x2="3247.09" y2="2766.66" style="stroke:#F0F0F0;stroke-width:9.72"/>
	<line x1="3279.49" y1="2766.66" x2="3344.29" y2="2766.66" style="stroke:#F0F0F0;stroke-width:9.72"/>
	<line x1="557.89" y1="1906.03" x2="622.69" y2="1906.03" style="stroke:#F0F0F0;stroke-width:9.72"/>
	<line x1="655.09" y1="1906.03" x2="719.89" y2="1906.03" style="stroke:#F0F0F0;stroke-width:9.72"/>
	<line x1="752.29" y1="1906.03" x2="817.09" y2="1906.03" style="stroke:#F0F0F0;stroke-width:9.72"/>
	<line x1="849.49" y1="1906.03" x2="914.29" y2="1906.03" style="stroke:#F0F0F0;stroke-width:9.72"/>
	<line x1="946.69" y1="1906.03" x2="1011.49" y2="1906.03" style="stroke:#F0F0F0;stroke-width:9.72"/>
	<line x1="1043.89" y1="1906.03" x2="1108.69" y2="1906.03" style="stroke:#F0F0F0;stroke-width:9.72"/>
	<line x1="1141.09" y1="1906.03" x2="1205.89" y2="1906.03" style="stroke:#F0F0F0;stroke-width:9.72"/>
	<line x1="1238.29" y1="1906.03" x2="1303.09" y2="1906.03" style="stroke:#F0F0F0;stroke-width:9.72"/>
	<line x1="1335.49" y1="1906.03" x2="1400.29" y2="1906.03" style="stroke:#F0F0F0;stroke-width:9.72"/>
	<line x1="1432.69" y1="1906.03" x2="1497.49" y2="1906.03" style="stroke:#F0F0F0;stroke-width:9.72"/>
	<line x1="1529.89" y1="1906.03" x2="1594.69" y2="1906.03" style="stroke:#F0F0F0;stroke-width:9.72"/>
	<line x1="1627.09" y1="1906.03" x2="1691.89" y2="1906.03" style="stroke:#F0F0F0;stroke-width:9.72"/>
	<line x1="1724.29" y1="1906.03" x2="1789.09" y2="1906.03" style="stroke:#F0F0F0;stroke-width:9.72"/>
	<line x1="1821.49" y1="1906.03" x2="1886.29" y2="1906.03" style="stroke:#F0F0F0;stroke-width:9.72"/>
	<line x1="1918.69" y1="1906.03" x2="1983.49" y2="1906.03" style="stroke:#F0F0F0;stroke-width:9.72"/>
	<line x1="2015.89" y1="1906.03" x2="2080.69" y2="1906.03" style="stroke:#F0F0F0;stroke-width:9.72"/>
	<line x1="2113.09" y1="1906.03" x2="2177.89" y2="1906.03" style="stroke:#F0F0F0;stroke-width:9.72"/>
	<line x1="2210.29" y1="1906.03" x2="2275.09" y2="1906.03" style="stroke:#F0F0F0;stroke-width:9.72"/>
	<line x1="2307.49" y1="1906.03" x2="2372.29" y2="1906.03" style="stroke:#F0F0F0;stroke-width:9.72"/>
	<line x1="2404.69" y1="1906.03" x2="2469.49" y2="1906.03" style="stroke:#F0F0F0;stroke-width:9.72"/>
	<line x1="2501.89" y1="1906.03" x2="2566.69" y2="1906.03" style="stroke:#F0F0F0;stroke-width:9.72"/>
	<line x1="2599.09" y1="1906.03" x2="2663.89" y2="1906.03" style="stroke:#F0F0F0;stroke-width:9.72"/>
	<line x1="2696.29" y1="1906.03" x2="2761.09" y2="1906.03" style="stroke:#F0F0F0;stroke-width:9.72"/>
	<line x1="2793.49" y1="1906.03" x2="2858.29" y2="1906.03" style="stroke:#F0F0F0;stroke-width:9.72"/>
	<line x1="2890.69" y1="1906.03" x2="2955.49" y2="1906.03" style="stroke:#F0F0F0;stroke-width:9.72"/>
	<line x1="2987.89" y1="1906.03" x2="3052.69" y2="1906.03" style="stroke:#F0F0F0;stroke-width:9.72"/>
	<line x1="3085.09" y1="1906.03" x2="3149.89" y2="1906.03" style="stroke:#F0F0F0;stroke-width:9.72"/>
	<line x1="3182.29" y1="1906.03" x2="3247.09" y2="1906.03" style="stroke:#F0F0F0;stroke-width:9.72"/>
	<line x1="3279.49" y1="1906.03" x2="3344.29" y2="1906.03" style="stroke:#F0F0F0;stroke-width:9.72"/>
	<line x1="557.89" y1="1045.41" x2="622.69" y2="1045.41" style="stroke:#F0F0F0;stroke-width:9.72"/>
	<line x1="655.09" y1="1045.41" x2="719.89" y2="1045.41" style="stroke:#F0F0F0;stroke-width:9.72"/>
	<line x1="752.29" y1="1045.41" x2="817.09" y2="1045.41" style="stroke:#F0F0F0;stroke-width:9.72"/>
	<line x1="849.49" y1="1045.41" x2="914.29" y2="1045.41" style="stroke:#F0F0F0;stroke-width:9.72"/>
	<line x1="946.69" y1="1045.41" x2="1011.49" y2="1045.41" style="stroke:#F0F0F0;stroke-width:9.72"/>
	<line x1="1043.89" y1="1045.41" x2="1108.69" y2="1045.41" style="stroke:#F0F0F0;stroke-width:9.72"/>
	<line x1="1141.09" y1="1045.41" x2="1205.89" y2="1045.41" style="stroke:#F0F0F0;stroke-width:9.72"/>
	<line x1="1238.29" y1="1045.41" x2="1303.09" y2="1045.41" style="stroke:#F0F0F0;stroke-width:9.72"/>
	<line x1="1335.49" y1="1045.41" x2="1400.29" y2="1045.41" style="stroke:#F0F0F0;stroke-width:9.72"/>
	<line x1="1432.69" y1="1045.41" x2="1497.49" y2="1045.41" style="stroke:#F0F0F0;stroke-width:9.72"/>
	<line x1="1529.89" y1="1045.41" x2="1594.69" y2="1045.41" style="stroke:#F0F0F0;stroke-width:9.72"/>
	<line x1="1627.09" y1="1045.41" x2="1691.89" y2="1045.41" style="stroke:#F0F0F0;stroke-width:9.72"/>
	<line x1="1724.29" y1="1045.41" x2="1789.09" y2="1045.41" style="stroke:#F0F0F0;stroke-width:9.72"/>
	<line x1="1821.49" y1="1045.41" x2="1886.29" y2="1045.41" style="stroke:#F0F0F0;stroke-width:9.72"/>
	<line x1="1918.69" y1="1045.41" x2="1983.49" y2="1045.41" style="stroke:#F0F0F0;stroke-width:9.72"/>
	<line x1="2015.89" y1="1045.41" x2="2080.69" y2="1045.41" style="stroke:#F0F0F0;stroke-width:9.72"/>
	<line x1="2113.09" y1="1045.41" x2="2177.89" y2="1045.41" style="stroke:#F0F0F0;stroke-width:9.72"/>
	<line x1="2210.29" y1="1045.41" x2="2275.09" y2="1045.41" style="stroke:#F0F0F0;stroke-width:9.72"/>
	<line x1="2307.49" y1="1045.41" x2="2372.29" y2="1045.41" style="stroke:#F0F0F0;stroke-width:9.72"/>
	<line x1="2404.69" y1="1045.41" x2="2469.49" y2="1045.41" style="stroke:#F0F0F0;stroke-width:9.72"/>
	<line x1="2501.89" y1="1045.41" x2="2566.69" y2="1045.41" style="stroke:#F0F0F0;stroke-width:9.72"/>
	<line x1="2599.09" y1="1045.41" x2="2663.89" y2="1045.41" style="stroke:#F0F0F0;stroke-width:9.72"/>
	<line x1="2696.29" y1="1045.41" x2="2761.09" y2="1045.41" style="stroke:#F0F0F0;stroke-width:9.72"/>
	<line x1="2793.49" y1="1045.41" x2="2858.29" y2="1045.41" style="stroke:#F0F0F0;stroke-width:9.72"/>
	<line x1="2890.69" y1="1045.41" x2="2955.49" y2="1045.41" style="stroke:#F0F0F0;stroke-width:9.72"/>
	<line x1="2987.89" y1="1045.41" x2="3052.69" y2="1045.41" style="stroke:#F0F0F0;stroke-width:9.72"/>
	<line x1="3085.09" y1="1045.41" x2="3149.89" y2="1045.41" style="stroke:#F0F0F0;stroke-width:9.72"/>
	<line x1="3182.29" y1="1045.41" x2="3247.09" y2="1045.41" style="stroke:#F0F0F0;stroke-width:9.72"/>
	<line x1="3279.49" y1="1045.41" x2="3344.29" y2="1045.41" style="stroke:#F0F0F0;stroke-width:9.72"/>
	<line x1="557.89" y1="184.61" x2="622.69" y2="184.61" style="stroke:#F0F0F0;stroke-width:9.72"/>
	<line x1="655.09" y1="184.61" x2="719.89" y2="184.61" style="stroke:#F0F0F0;stroke-width:9.72"/>
	<line x1="752.29" y1="184.61" x2="817.09" y2="184.61" style="stroke:#F0F0F0;stroke-width:9.72"/>
	<line x1="849.49" y1="184.61" x2="914.29" y2="184.61" style="stroke:#F0F0F0;stroke-width:9.72"/>
	<line x1="946.69" y1="184.61" x2="1011.49" y2="184.61" style="stroke:#F0F0F0;stroke-width:9.72"/>
	<line x1="1043.89" y1="184.61" x2="1108.69" y2="184.61" style="stroke:#F0F0F0;stroke-width:9.72"/>
	<line x1="1141.09" y1="184.61" x2="1205.89" y2="184.61" style="stroke:#F0F0F0;stroke-width:9.72"/>
	<line x1="1238.29" y1="184.61" x2="1303.09" y2="184.61" style="stroke:#F0F0F0;stroke-width:9.72"/>
	<line x1="1335.49" y1="184.61" x2="1400.29" y2="184.61" style="stroke:#F0F0F0;stroke-width:9.72"/>
	<line x1="1432.69" y1="184.61" x2="1497.49" y2="184.61" style="stroke:#F0F0F0;stroke-width:9.72"/>
	<line x1="1529.89" y1="184.61" x2="1594.69" y2="184.61" style="stroke:#F0F0F0;stroke-width:9.72"/>
	<line x1="1627.09" y1="184.61" x2="1691.89" y2="184.61" style="stroke:#F0F0F0;stroke-width:9.72"/>
	<line x1="1724.29" y1="184.61" x2="1789.09" y2="184.61" style="stroke:#F0F0F0;stroke-width:9.72"/>
	<line x1="1821.49" y1="184.61" x2="1886.29" y2="184.61" style="stroke:#F0F0F0;stroke-width:9.72"/>
	<line x1="1918.69" y1="184.61" x2="1983.49" y2="184.61" style="stroke:#F0F0F0;stroke-width:9.72"/>
	<line x1="2015.89" y1="184.61" x2="2080.69" y2="184.61" style="stroke:#F0F0F0;stroke-width:9.72"/>
	<line x1="2113.09" y1="184.61" x2="2177.89" y2="184.61" style="stroke:#F0F0F0;stroke-width:9.72"/>
	<line x1="2210.29" y1="184.61" x2="2275.09" y2="184.61" style="stroke:#F0F0F0;stroke-width:9.72"/>
	<line x1="2307.49" y1="184.61" x2="2372.29" y2="184.61" style="stroke:#F0F0F0;stroke-width:9.72"/>
	<line x1="2404.69" y1="184.61" x2="2469.49" y2="184.61" style="stroke:#F0F0F0;stroke-width:9.72"/>
	<line x1="2501.89" y1="184.61" x2="2566.69" y2="184.61" style="stroke:#F0F0F0;stroke-width:9.72"/>
	<line x1="2599.09" y1="184.61" x2="2663.89" y2="184.61" style="stroke:#F0F0F0;stroke-width:9.72"/>
	<line x1="2696.29" y1="184.61" x2="2761.09" y2="184.61" style="stroke:#F0F0F0;stroke-width:9.72"/>
	<line x1="2793.49" y1="184.61" x2="2858.29" y2="184.61" style="stroke:#F0F0F0;stroke-width:9.72"/>
	<line x1="2890.69" y1="184.61" x2="2955.49" y2="184.61" style="stroke:#F0F0F0;stroke-width:9.72"/>
	<line x1="2987.89" y1="184.61" x2="3052.69" y2="184.61" style="stroke:#F0F0F0;stroke-width:9.72"/>
	<line x1="3085.09" y1="184.61" x2="3149.89" y2="184.61" style="stroke:#F0F0F0;stroke-width:9.72"/>
	<line x1="3182.29" y1="184.61" x2="3247.09" y2="184.61" style="stroke:#F0F0F0;stroke-width:9.72"/>
	<line x1="3279.49" y1="184.61" x2="3344.29" y2="184.61" style="stroke:#F0F0F0;stroke-width:9.72"/>
	<line x1="847.46" y1="2766.66" x2="847.46" y2="2701.86" style="stroke:#F0F0F0;stroke-width:9.72"/>
	<line x1="847.46" y1="2669.46" x2="847.46" y2="2604.66" style="stroke:#F0F0F0;stroke-width:9.72"/>
	<line x1="847.46" y1="2572.26" x2="847.46" y2="2507.46" style="stroke:#F0F0F0;stroke-width:9.72"/>
	<line x1="847.46" y1="2475.06" x2="847.46" y2="2410.26" style="stroke:#F0F0F0;stroke-width:9.72"/>
	<line x1="847.46" y1="2377.86" x2="847.46" y2="2313.06" style="stroke:#F0F0F0;stroke-width:9.72"/>
	<line x1="847.46" y1="2280.66" x2="847.46" y2="2215.86" style="stroke:#F0F0F0;stroke-width:9.72"/>
	<line x1="847.46" y1="2183.46" x2="847.46" y2="2118.66" style="stroke:#F0F0F0;stroke-width:9.72"/>
	<line x1="847.46" y1="2086.26" x2="847.46" y2="2021.46" style="stroke:#F0F0F0;stroke-width:9.72"/>
	<line x1="847.46" y1="1989.06" x2="847.46" y2="1924.26" style="stroke:#F0F0F0;stroke-width:9.72"/>
	<line x1="847.46" y1="1891.86" x2="847.46" y2="1827.06" style="stroke:#F0F0F0;stroke-width:9.72"/>
	<line x1="847.46" y1="1794.66" x2="847.46" y2="1729.86" style="stroke:#F0F0F0;stroke-width:9.72"/>
	<line x1="847.46" y1="1697.46" x2="847.46" y2="1632.66" style="stroke:#F0F0F0;stroke-width:9.72"/>
	<line x1="847.46" y1="1600.26" x2="847.46" y2="1535.46" style="stroke:#F0F0F0;stroke-width:9.72"/>
	<line x1="847.46" y1="1503.06" x2="847.46" y2="1438.26" style="stroke:#F0F0F0;stroke-width:9.72"/>
	<line x1="847.46" y1="1405.86" x2="847.46" y2="1341.06" style="stroke:#F0F0F0;stroke-width:9.72"/>
	<line x1="847.46" y1="1308.66" x2="847.46" y2="1243.86" style="stroke:#F0F0F0;stroke-width:9.72"/>
	<line x1="847.46" y1="1211.46" x2="847.46" y2="1146.66" style="stroke:#F0F0F0;stroke-width:9.72"/>
	<line x1="847.46" y1="1114.26" x2="847.46" y2="1049.46" style="stroke:#F0F0F0;stroke-width:9.72"/>
	<line x1="847.46" y1="1017.06" x2="847.46" y2="952.26" style="stroke:#F0F0F0;stroke-width:9.72"/>
	<line x1="847.46" y1="919.86" x2="847.46" y2="855.06" style="stroke:#F0F0F0;stroke-width:9.72"/>
	<line x1="847.46" y1="822.66" x2="847.46" y2="757.86" style="stroke:#F0F0F0;stroke-width:9.72"/>
	<line x1="847.46" y1="725.46" x2="847.46" y2="660.66" style="stroke:#F0F0F0;stroke-width:9.72"/>
	<line x1="847.46" y1="628.26" x2="847.46" y2="563.46" style="stroke:#F0F0F0;stroke-width:9.72"/>
	<line x1="847.46" y1="531.06" x2="847.46" y2="466.26" style="stroke:#F0F0F0;stroke-width:9.72"/>
	<line x1="847.46" y1="433.86" x2="847.46" y2="369.06" style="stroke:#F0F0F0;stroke-width:9.72"/>
	<line x1="847.46" y1="336.66" x2="847.46" y2="271.86" style="stroke:#F0F0F0;stroke-width:9.72"/>
	<line x1="847.46" y1="239.46" x2="847.46" y2="174.66" style="stroke:#F0F0F0;stroke-width:9.72"/>
	<line x1="847.46" y1="142.26" x2="847.46" y2="113.40" style="stroke:#F0F0F0;stroke-width:9.72"/>
	<line x1="1461.21" y1="2766.66" x2="1461.21" y2="2701.86" style="stroke:#F0F0F0;stroke-width:9.72"/>
	<line x1="1461.21" y1="2669.46" x2="1461.21" y2="2604.66" style="stroke:#F0F0F0;stroke-width:9.72"/>
	<line x1="1461.21" y1="2572.26" x2="1461.21" y2="2507.46" style="stroke:#F0F0F0;stroke-width:9.72"/>
	<line x1="1461.21" y1="2475.06" x2="1461.21" y2="2410.26" style="stroke:#F0F0F0;stroke-width:9.72"/>
	<line x1="1461.21" y1="2377.86" x2="1461.21" y2="2313.06" style="stroke:#F0F0F0;stroke-width:9.72"/>
	<line x1="1461.21" y1="2280.66" x2="1461.21" y2="2215.86" style="stroke:#F0F0F0;stroke-width:9.72"/>
	<line x1="1461.21" y1="2183.46" x2="1461.21" y2="2118.66" style="stroke:#F0F0F0;stroke-width:9.72"/>
	<line x1="1461.21" y1="2086.26" x2="1461.21" y2="2021.46" style="stroke:#F0F0F0;stroke-width:9.72"/>
	<line x1="1461.21" y1="1989.06" x2="1461.21" y2="1924.26" style="stroke:#F0F0F0;stroke-width:9.72"/>
	<line x1="1461.21" y1="1891.86" x2="1461.21" y2="1827.06" style="stroke:#F0F0F0;stroke-width:9.72"/>
	<line x1="1461.21" y1="1794.66" x2="1461.21" y2="1729.86" style="stroke:#F0F0F0;stroke-width:9.72"/>
	<line x1="1461.21" y1="1697.46" x2="1461.21" y2="1632.66" style="stroke:#F0F0F0;stroke-width:9.72"/>
	<line x1="1461.21" y1="1600.26" x2="1461.21" y2="1535.46" style="stroke:#F0F0F0;stroke-width:9.72"/>
	<line x1="1461.21" y1="1503.06" x2="1461.21" y2="1438.26" style="stroke:#F0F0F0;stroke-width:9.72"/>
	<line x1="1461.21" y1="1405.86" x2="1461.21" y2="1341.06" style="stroke:#F0F0F0;stroke-width:9.72"/>
	<line x1="1461.21" y1="1308.66" x2="1461.21" y2="1243.86" style="stroke:#F0F0F0;stroke-width:9.72"/>
	<line x1="1461.21" y1="1211.46" x2="1461.21" y2="1146.66" style="stroke:#F0F0F0;stroke-width:9.72"/>
	<line x1="1461.21" y1="1114.26" x2="1461.21" y2="1049.46" style="stroke:#F0F0F0;stroke-width:9.72"/>
	<line x1="1461.21" y1="1017.06" x2="1461.21" y2="952.26" style="stroke:#F0F0F0;stroke-width:9.72"/>
	<line x1="1461.21" y1="919.86" x2="1461.21" y2="855.06" style="stroke:#F0F0F0;stroke-width:9.72"/>
	<line x1="1461.21" y1="822.66" x2="1461.21" y2="757.86" style="stroke:#F0F0F0;stroke-width:9.72"/>
	<line x1="1461.21" y1="725.46" x2="1461.21" y2="660.66" style="stroke:#F0F0F0;stroke-width:9.72"/>
	<line x1="1461.21" y1="628.26" x2="1461.21" y2="563.46" style="stroke:#F0F0F0;stroke-width:9.72"/>
	<line x1="1461.21" y1="531.06" x2="1461.21" y2="466.26" style="stroke:#F0F0F0;stroke-width:9.72"/>
	<line x1="1461.21" y1="433.86" x2="1461.21" y2="369.06" style="stroke:#F0F0F0;stroke-width:9.72"/>
	<line x1="1461.21" y1="336.66" x2="1461.21" y2="271.86" style="stroke:#F0F0F0;stroke-width:9.72"/>
	<line x1="1461.21" y1="239.46" x2="1461.21" y2="174.66" style="stroke:#F0F0F0;stroke-width:9.72"/>
	<line x1="1461.21" y1="142.26" x2="1461.21" y2="113.40" style="stroke:#F0F0F0;stroke-width:9.72"/>
	<line x1="2074.78" y1="2766.66" x2="2074.78" y2="2701.86" style="stroke:#F0F0F0;stroke-width:9.72"/>
	<line x1="2074.78" y1="2669.46" x2="2074.78" y2="2604.66" style="stroke:#F0F0F0;stroke-width:9.72"/>
	<line x1="2074.78" y1="2572.26" x2="2074.78" y2="2507.46" style="stroke:#F0F0F0;stroke-width:9.72"/>
	<line x1="2074.78" y1="2475.06" x2="2074.78" y2="2410.26" style="stroke:#F0F0F0;stroke-width:9.72"/>
	<line x1="2074.78" y1="2377.86" x2="2074.78" y2="2313.06" style="stroke:#F0F0F0;stroke-width:9.72"/>
	<line x1="2074.78" y1="2280.66" x2="2074.78" y2="2215.86" style="stroke:#F0F0F0;stroke-width:9.72"/>
	<line x1="2074.78" y1="2183.46" x2="2074.78" y2="2118.66" style="stroke:#F0F0F0;stroke-width:9.72"/>
	<line x1="2074.78" y1="2086.26" x2="2074.78" y2="2021.46" style="stroke:#F0F0F0;stroke-width:9.72"/>
	<line x1="2074.78" y1="1989.06" x2="2074.78" y2="1924.26" style="stroke:#F0F0F0;stroke-width:9.72"/>
	<line x1="2074.78" y1="1891.86" x2="2074.78" y2="1827.06" style="stroke:#F0F0F0;stroke-width:9.72"/>
	<line x1="2074.78" y1="1794.66" x2="2074.78" y2="1729.86" style="stroke:#F0F0F0;stroke-width:9.72"/>
	<line x1="2074.78" y1="1697.46" x2="2074.78" y2="1632.66" style="stroke:#F0F0F0;stroke-width:9.72"/>
	<line x1="2074.78" y1="1600.26" x2="2074.78" y2="1535.46" style="stroke:#F0F0F0;stroke-width:9.72"/>
	<line x1="2074.78" y1="1503.06" x2="2074.78" y2="1438.26" style="stroke:#F0F0F0;stroke-width:9.72"/>
	<line x1="2074.78" y1="1405.86" x2="2074.78" y2="1341.06" style="stroke:#F0F0F0;stroke-width:9.72"/>
	<line x1="2074.78" y1="1308.66" x2="2074.78" y2="1243.86" style="stroke:#F0F0F0;stroke-width:9.72"/>
	<line x1="2074.78" y1="1211.46" x2="2074.78" y2="1146.66" style="stroke:#F0F0F0;stroke-width:9.72"/>
	<line x1="2074.78" y1="1114.26" x2="2074.78" y2="1049.46" style="stroke:#F0F0F0;stroke-width:9.72"/>
	<line x1="2074.78" y1="1017.06" x2="2074.78" y2="952.26" style="stroke:#F0F0F0;stroke-width:9.72"/>
	<line x1="2074.78" y1="919.86" x2="2074.78" y2="855.06" style="stroke:#F0F0F0;stroke-width:9.72"/>
	<line x1="2074.78" y1="822.66" x2="2074.78" y2="757.86" style="stroke:#F0F0F0;stroke-width:9.72"/>
	<line x1="2074.78" y1="725.46" x2="2074.78" y2="660.66" style="stroke:#F0F0F0;stroke-width:9.72"/>
	<line x1="2074.78" y1="628.26" x2="2074.78" y2="563.46" style="stroke:#F0F0F0;stroke-width:9.72"/>
	<line x1="2074.78" y1="531.06" x2="2074.78" y2="466.26" style="stroke:#F0F0F0;stroke-width:9.72"/>
	<line x1="2074.78" y1="433.86" x2="2074.78" y2="369.06" style="stroke:#F0F0F0;stroke-width:9.72"/>
	<line x1="2074.78" y1="336.66" x2="2074.78" y2="271.86" style="stroke:#F0F0F0;stroke-width:9.72"/>
	<line x1="2074.78" y1="239.46" x2="2074.78" y2="174.66" style="stroke:#F0F0F0;stroke-width:9.72"/>
	<line x1="2074.78" y1="142.26" x2="2074.78" y2="113.40" style="stroke:#F0F0F0;stroke-width:9.72"/>
	<line x1="2688.53" y1="2766.66" x2="2688.53" y2="2701.86" style="stroke:#F0F0F0;stroke-width:9.72"/>
	<line x1="2688.53" y1="2669.46" x2="2688.53" y2="2604.66" style="stroke:#F0F0F0;stroke-width:9.72"/>
	<line x1="2688.53" y1="2572.26" x2="2688.53" y2="2507.46" style="stroke:#F0F0F0;stroke-width:9.72"/>
	<line x1="2688.53" y1="2475.06" x2="2688.53" y2="2410.26" style="stroke:#F0F0F0;stroke-width:9.72"/>
	<line x1="2688.53" y1="2377.86" x2="2688.53" y2="2313.06" style="stroke:#F0F0F0;stroke-width:9.72"/>
	<line x1="2688.53" y1="2280.66" x2="2688.53" y2="2215.86" style="stroke:#F0F0F0;stroke-width:9.72"/>
	<line x1="2688.53" y1="2183.46" x2="2688.53" y2="2118.66" style="stroke:#F0F0F0;stroke-width:9.72"/>
	<line x1="2688.53" y1="2086.26" x2="2688.53" y2="2021.46" style="stroke:#F0F0F0;stroke-width:9.72"/>
	<line x1="2688.53" y1="1989.06" x2="2688.53" y2="1924.26" style="stroke:#F0F0F0;stroke-width:9.72"/>
	<line x1="2688.53" y1="1891.86" x2="2688.53" y2="1827.06" style="stroke:#F0F0F0;stroke-width:9.72"/>
	<line x1="2688.53" y1="1794.66" x2="2688.53" y2="1729.86" style="stroke:#F0F0F0;stroke-width:9.72"/>
	<line x1="2688.53" y1="1697.46" x2="2688.53" y2="1632.66" style="stroke:#F0F0F0;stroke-width:9.72"/>
	<line x1="2688.53" y1="1600.26" x2="2688.53" y2="1535.46" style="stroke:#F0F0F0;stroke-width:9.72"/>
	<line x1="2688.53" y1="1503.06" x2="2688.53" y2="1438.26" style="stroke:#F0F0F0;stroke-width:9.72"/>
	<line x1="2688.53" y1="1405.86" x2="2688.53" y2="1341.06" style="stroke:#F0F0F0;stroke-width:9.72"/>
	<line x1="2688.53" y1="1308.66" x2="2688.53" y2="1243.86" style="stroke:#F0F0F0;stroke-width:9.72"/>
	<line x1="2688.53" y1="1211.46" x2="2688.53" y2="1146.66" style="stroke:#F0F0F0;stroke-width:9.72"/>
	<line x1="2688.53" y1="1114.26" x2="2688.53" y2="1049.46" style="stroke:#F0F0F0;stroke-width:9.72"/>
	<line x1="2688.53" y1="1017.06" x2="2688.53" y2="952.26" style="stroke:#F0F0F0;stroke-width:9.72"/>
	<line x1="2688.53" y1="919.86" x2="2688.53" y2="855.06" style="stroke:#F0F0F0;stroke-width:9.72"/>
	<line x1="2688.53" y1="822.66" x2="2688.53" y2="757.86" style="stroke:#F0F0F0;stroke-width:9.72"/>
	<line x1="2688.53" y1="725.46" x2="2688.53" y2="660.66" style="stroke:#F0F0F0;stroke-width:9.72"/>
	<line x1="2688.53" y1="628.26" x2="2688.53" y2="563.46" style="stroke:#F0F0F0;stroke-width:9.72"/>
	<line x1="2688.53" y1="531.06" x2="2688.53" y2="466.26" style="stroke:#F0F0F0;stroke-width:9.72"/>
	<line x1="2688.53" y1="433.86" x2="2688.53" y2="369.06" style="stroke:#F0F0F0;stroke-width:9.72"/>
	<line x1="2688.53" y1="336.66" x2="2688.53" y2="271.86" style="stroke:#F0F0F0;stroke-width:9.72"/>
	<line x1="2688.53" y1="239.46" x2="2688.53" y2="174.66" style="stroke:#F0F0F0;stroke-width:9.72"/>
	<line x1="2688.53" y1="142.26" x2="2688.53" y2="113.40" style="stroke:#F0F0F0;stroke-width:9.72"/>
	<line x1="3302.10" y1="2766.66" x2="3302.10" y2="2701.86" style="stroke:#F0F0F0;stroke-width:9.72"/>
	<line x1="3302.10" y1="2669.46" x2="3302.10" y2="2604.66" style="stroke:#F0F0F0;stroke-width:9.72"/>
	<line x1="3302.10" y1="2572.26" x2="3302.10" y2="2507.46" style="stroke:#F0F0F0;stroke-width:9.72"/>
	<line x1="3302.10" y1="2475.06" x2="3302.10" y2="2410.26" style="stroke:#F0F0F0;stroke-width:9.72"/>
	<line x1="3302.10" y1="2377.86" x2="3302.10" y2="2313.06" style="stroke:#F0F0F0;stroke-width:9.72"/>
	<line x1="3302.10" y1="2280.66" x2="3302.10" y2="2215.86" style="stroke:#F0F0F0;stroke-width:9.72"/>
	<line x1="3302.10" y1="2183.46" x2="3302.10" y2="2118.66" style="stroke:#F0F0F0;stroke-width:9.72"/>
	<line x1="3302.10" y1="2086.26" x2="3302.10" y2="2021.46" style="stroke:#F0F0F0;stroke-width:9.72"/>
	<line x1="3302.10" y1="1989.06" x2="3302.10" y2="1924.26" style="stroke:#F0F0F0;stroke-width:9.72"/>
	<line x1="3302.10" y1="1891.86" x2="3302.10" y2="1827.06" style="stroke:#F0F0F0;stroke-width:9.72"/>
	<line x1="3302.10" y1="1794.66" x2="3302.10" y2="1729.86" style="stroke:#F0F0F0;stroke-width:9.72"/>
	<line x1="3302.10" y1="1697.46" x2="3302.10" y2="1632.66" style="stroke:#F0F0F0;stroke-width:9.72"/>
	<line x1="3302.10" y1="1600.26" x2="3302.10" y2="1535.46" style="stroke:#F0F0F0;stroke-width:9.72"/>
	<line x1="3302.10" y1="1503.06" x2="3302.10" y2="1438.26" style="stroke:#F0F0F0;stroke-width:9.72"/>
	<line x1="3302.10" y1="1405.86" x2="3302.10" y2="1341.06" style="stroke:#F0F0F0;stroke-width:9.72"/>
	<line x1="3302.10" y1="1308.66" x2="3302.10" y2="1243.86" style="stroke:#F0F0F0;stroke-width:9.72"/>
	<line x1="3302.10" y1="1211.46" x2="3302.10" y2="1146.66" style="stroke:#F0F0F0;stroke-width:9.72"/>
	<line x1="3302.10" y1="1114.26" x2="3302.10" y2="1049.46" style="stroke:#F0F0F0;stroke-width:9.72"/>
	<line x1="3302.10" y1="1017.06" x2="3302.10" y2="952.26" style="stroke:#F0F0F0;stroke-width:9.72"/>
	<line x1="3302.10" y1="919.86" x2="3302.10" y2="855.06" style="stroke:#F0F0F0;stroke-width:9.72"/>
	<line x1="3302.10" y1="822.66" x2="3302.10" y2="757.86" style="stroke:#F0F0F0;stroke-width:9.72"/>
	<line x1="3302.10" y1="725.46" x2="3302.10" y2="660.66" style="stroke:#F0F0F0;stroke-width:9.72"/>
	<line x1="3302.10" y1="628.26" x2="3302.10" y2="563.46" style="stroke:#F0F0F0;stroke-width:9.72"/>
	<line x1="3302.10" y1="531.06" x2="3302.10" y2="466.26" style="stroke:#F0F0F0;stroke-width:9.72"/>
	<line x1="3302.10" y1="433.86" x2="3302.10" y2="369.06" style="stroke:#F0F0F0;stroke-width:9.72"/>
	<line x1="3302.10" y1="336.66" x2="3302.10" y2="271.86" style="stroke:#F0F0F0;stroke-width:9.72"/>
	<line x1="3302.10" y1="239.46" x2="3302.10" y2="174.66" style="stroke:#F0F0F0;stroke-width:9.72"/>
	<line x1="3302.10" y1="142.26" x2="3302.10" y2="113.40" style="stroke:#F0F0F0;stroke-width:9.72"/>
	<rect x="854.21" y="1984.16" width="449.89" height="782.49" style="fill:#FF8C19;fill-opacity:0.40"/>
	<rect x="856.64" y="1986.59" width="445.03" height="777.63" style="fill:none;stroke:#5FAAFF;stroke-width:4.86"/>
	<rect x="1304.10" y="1788.58" width="450.06" height="978.08" style="fill:#FF8C19;fill-opacity:0.40"/>
	<rect x="1306.53" y="1791.01" width="445.20" height="973.22" style="fill:none;stroke:#5FAAFF;stroke-width:4.86"/>
	<rect x="1754.16" y="1006.09" width="450.06" height="1760.57" style="fill:#FF8C19;fill-opacity:0.40"/>
	<rect x="1756.59" y="1008.52" width="445.20" height="1755.71" style="fill:none;stroke:#5FAAFF;stroke-width:4.86"/>
	<rect x="2204.21" y="1006.09" width="449.89" height="1760.57" style="fill:#FF8C19;fill-opacity:0.40"/>
	<rect x="2206.64" y="1008.52" width="445.03" height="1755.71" style="fill:none;stroke:#5FAAFF;stroke-width:4.86"/>
	<rect x="2654.10" y="2179.74" width="450.06" height="586.91" style="fill:#FF8C19;fill-opacity:0.40"/>
	<rect x="2656.53" y="2182.17" width="445.20" height="582.05" style="fill:none;stroke:#5FAAFF;stroke-width:4.86"/>
	<path d=" M854.04 2521.46 L861.64 2514.71 L869.23 2507.96 L876.66 2500.88 L884.25 2493.79 L891.68 2486.53 L899.27 2479.28 L906.86 2471.68 L914.29 2463.92 L921.88 2456.16 L929.31 2448.23 L936.90 2440.13 L944.33 2431.86 L951.92 2423.42 L959.51 2414.81 L966.94 2406.21 L974.53 2397.26 L981.96 2388.32 L989.55 2379.21 L997.14 2369.93 L1004.57 2360.48 L1012.16 2350.86 L1019.59 2341.07 L1027.18 2331.11 L1034.78 2321.16 L1042.20 2310.86 L1049.79 2300.57 L1057.22 2290.11 L1064.81 2279.31 L1072.41 2268.51 L1079.83 2257.54 L1087.43 2246.57 L1094.85 2235.26 L1102.44 2223.96 L1109.87 2212.31 L1117.46 2200.67 L1125.06 2188.86 L1132.48 2176.88 L1140.08 2164.89 L1147.50 2152.57 L1155.09 2140.26 L1162.69 2127.77 L1170.11 2115.11 L1177.71 2102.29 L1185.13 2089.46 L1192.72 2076.30 L1200.32 2063.31 L1207.74 2049.98 L1215.34 2036.64 L1222.76 2023.14 L1230.36 2009.48 L1237.95 1995.64 L1245.38 1981.80 L1252.97 1967.96 L1260.39 1953.96 L1267.99 1939.78 L1275.41 1925.44 L1283.01 1911.26 L1290.60 1896.75 L1298.03 1882.24 L1305.62 1867.73 L1313.04 1853.04 L1320.64 1838.36 L1328.23 1823.51 L1335.66 1808.66 L1343.25 1793.81 L1350.68 1778.79 L1358.27 1763.78 L1365.86 1748.59 L1373.29 1733.57 L1380.88 1718.38 L1388.31 1703.19 L1395.90 1688.01 L1403.49 1672.82 L1410.92 1657.63 L1418.51 1642.28 L1425.94 1627.09 L1433.53 1611.73 L1440.96 1596.54 L1448.55 1581.36 L1456.14 1566.17 L1463.57 1550.81 L1471.16 1535.79 L1478.59 1520.61 L1486.18 1505.42 L1493.78 1490.40 L1501.20 1475.38 L1508.79 1460.53 L1516.22 1445.68 L1523.81 1430.83 L1531.41 1416.15 L1538.83 1401.47 L1546.43 1386.96 L1553.85 1372.44 L1561.44 1358.10 L1569.04 1343.93 L1576.46 1329.75 L1584.06 1315.74 L1591.48 1301.91 L1599.08 1288.07 L1606.50 1274.40 L1614.09 1261.07 L1621.69 1247.74 L1629.11 1234.58 L1636.71 1221.58 L1644.13 1208.76 L1651.73 1196.10 L1659.32 1183.61 L1666.74 1171.29 L1674.34 1159.31 L1681.76 1147.33 L1689.36 1135.69 L1696.95 1124.21 L1704.38 1112.91 L1711.97 1101.94 L1719.39 1091.14 L1726.99 1080.51 L1734.58 1070.21 L1742.01 1060.09 L1749.60 1050.30 L1757.03 1040.68 L1764.62 1031.40 L1772.04 1022.29 L1779.64 1013.51 L1787.23 1004.91 L1794.66 996.64 L1802.25 988.71 L1809.68 980.94 L1817.27 973.69 L1824.86 966.43 L1832.29 959.68 L1839.88 953.27 L1847.31 947.03 L1854.90 941.12 L1862.49 935.55 L1869.92 930.15 L1877.51 925.26 L1884.94 920.70 L1892.53 916.31 L1900.13 912.26 L1907.55 908.55 L1915.14 905.34 L1922.57 902.31 L1930.16 899.61 L1937.76 897.24 L1945.18 895.22 L1952.78 893.53 L1960.20 892.18 L1967.79 891.17 L1975.22 890.49 L1982.81 890.16 L1990.41 890.16 L1997.83 890.49 L2005.43 891.17 L2012.85 892.18 L2020.44 893.53 L2028.04 895.22 L2035.46 897.24 L2043.06 899.44 L2050.48 902.14 L2058.07 905.18 L2065.67 908.55 L2073.09 912.26 L2080.69 916.14 L2088.11 920.53 L2095.71 925.09 L2103.30 930.15 L2110.73 935.38 L2118.32 940.95 L2125.74 946.86 L2133.34 953.10 L2140.76 959.51 L2148.36 966.26 L2155.95 973.35 L2163.38 980.78 L2170.97 988.54 L2178.39 996.47 L2185.99 1004.74 L2193.58 1013.18 L2201.01 1021.95 L2208.60 1031.06 L2216.03 1040.34 L2223.62 1049.96 L2231.21 1059.92 L2238.64 1069.88 L2246.23 1080.17 L2253.66 1090.80 L2261.25 1101.60 L2268.84 1112.57 L2276.27 1123.88 L2283.86 1135.35 L2291.29 1146.99 L2298.88 1158.97 L2306.31 1170.96 L2313.90 1183.28 L2321.49 1195.76 L2328.92 1208.42 L2336.51 1221.24 L2343.94 1234.24 L2351.53 1247.40 L2359.13 1260.73 L2366.55 1274.06 L2374.14 1287.73 L2381.57 1301.57 L2389.16 1315.41 L2396.76 1329.41 L2404.18 1343.59 L2411.78 1357.76 L2419.20 1372.11 L2426.79 1386.62 L2434.39 1401.13 L2441.81 1415.81 L2449.41 1430.49 L2456.83 1445.34 L2464.43 1460.19 L2471.85 1475.04 L2479.44 1490.06 L2487.04 1505.08 L2494.46 1520.27 L2502.06 1535.29 L2509.48 1550.48 L2517.07 1565.66 L2524.67 1580.85 L2532.09 1596.21 L2539.69 1611.39 L2547.11 1626.58 L2554.71 1641.94 L2562.30 1657.13 L2569.73 1672.48 L2577.32 1687.67 L2584.74 1702.86 L2592.34 1718.04 L2599.93 1733.23 L2607.36 1748.25 L2614.95 1763.27 L2622.38 1778.46 L2629.97 1793.31 L2637.39 1808.33 L2644.99 1823.18 L2652.58 1837.86 L2660.01 1852.71 L2667.60 1867.39 L2675.03 1881.90 L2682.62 1896.41 L2690.21 1910.76 L2697.64 1925.10 L2705.23 1939.44 L2712.66 1953.62 L2720.25 1967.63 L2727.84 1981.46 L2735.27 1995.30 L2742.86 2009.14 L2750.29 2022.81 L2757.88 2036.31 L2765.48 2049.64 L2772.90 2062.97 L2780.49 2075.96 L2787.92 2089.13 L2795.51 2101.95 L2803.11 2114.78 L2810.53 2127.43 L2818.13 2139.92 L2825.55 2152.24 L2833.14 2164.56 L2840.57 2176.54 L2848.16 2188.52 L2855.76 2200.33 L2863.18 2212.14 L2870.78 2223.62 L2878.20 2234.93 L2885.79 2246.23 L2893.39 2257.37 L2900.81 2268.34 L2908.41 2279.14 L2915.83 2289.77 L2923.43 2300.23 L2931.02 2310.69 L2938.44 2320.82 L2946.04 2330.94 L2953.46 2340.73 L2961.06 2350.52 L2968.65 2360.14 L2976.08 2369.59 L2983.67 2378.87 L2991.09 2388.15 L2998.69 2397.09 L3006.11 2405.87 L3013.71 2414.64 L3021.30 2423.25 L3028.73 2431.69 L3036.32 2439.79 L3043.74 2448.06 L3051.34 2455.99 L3058.93 2463.75 L3066.36 2471.51 L3073.95 2478.94 L3081.38 2486.36 L3088.97 2493.62 L3096.56 2500.71 L3103.99 2507.79" stroke-linejoin="round" style="fill:none;stroke:#000000;stroke-width:9.72"/>
	<rect x="1009.80" y="2497.50" width="327.04" height="269.16" style="fill:#198DFF;fill-opacity:0.50"/>
	<rect x="1012.23" y="2499.93" width="322.18" height="264.30" style="fill:none;stroke:#5FAAFF;stroke-width:4.86"/>
	<rect x="1336.84" y="1420.71" width="327.04" height="1345.95" style="fill:#198DFF;fill-opacity:0.50"/>
	<rect x="1339.27" y="1423.14" width="322.18" height="1341.09" style="fill:none;stroke:#5FAAFF;stroke-width:4.86"/>
	<rect x="1663.88" y="882.22" width="327.04" height="1884.43" style="fill:#198DFF;fill-opacity:0.50"/>
	<rect x="1666.31" y="884.65" width="322.18" height="1879.57" style="fill:none;stroke:#5FAAFF;stroke-width:4.86"/>
	<rect x="1990.91" y="613.07" width="327.04" height="2153.59" style="fill:#198DFF;fill-opacity:0.50"/>
	<rect x="1993.34" y="615.50" width="322.18" height="2148.73" style="fill:none;stroke:#5FAAFF;stroke-width:4.86"/>
	<rect x="2317.95" y="343.91" width="326.87" height="2422.74" style="fill:#198DFF;fill-opacity:0.50"/>
	<rect x="2320.38" y="346.34" width="322.01" height="2417.88" style="fill:none;stroke:#5FAAFF;stroke-width:4.86"/>
	<line x1="557.89" y1="2766.66" x2="557.89" y2="113.40" style="stroke:#000000;stroke-width:6.48"/>
	<line x1="557.89" y1="2766.66" x2="513.00" y2="2766.66" style="stroke:#000000;stroke-width:6.48"/>
	<text x="490.39" y="2806.09" style="font-family:'Helvetica';font-size:112.56px;fill:#000000" text-anchor="end">0</text>
	<line x1="557.89" y1="1906.03" x2="513.00" y2="1906.03" style="stroke:#000000;stroke-width:6.48"/>
	<text x="490.39" y="1945.47" style="font-family:'Helvetica';font-size:112.56px;fill:#000000" text-anchor="end">.01</text>
	<line x1="557.89" y1="1045.41" x2="513.00" y2="1045.41" style="stroke:#000000;stroke-width:6.48"/>
	<text x="490.39" y="1084.84" style="font-family:'Helvetica';font-size:112.56px;fill:#000000" text-anchor="end">.02</text>
	<line x1="557.89" y1="184.61" x2="513.00" y2="184.61" style="stroke:#000000;stroke-width:6.48"/>
	<text x="490.39" y="224.05" style="font-family:'Helvetica';font-size:112.56px;fill:#000000" text-anchor="end">.03</text>
	<text x="214.55" y="1439.94" style="font-family:'Helvetica';font-size:112.56px;fill:#000000" transform="rotate(-90 214.55,1439.94)" text-anchor="middle">Density</text>
	<line x1="557.89" y1="2766.66" x2="3373.48" y2="2766.66" style="stroke:#000000;stroke-width:6.48"/>
	<line x1="847.46" y1="2766.66" x2="847.46" y2="2811.54" style="stroke:#000000;stroke-width:6.48"/>
	<text x="847.46" y="2912.86" style="font-family:'Helvetica';font-size:112.56px;fill:#000000" text-anchor="middle">20</text>
	<line x1="1461.21" y1="2766.66" x2="1461.21" y2="2811.54" style="stroke:#000000;stroke-width:6.48"/>
	<text x="1461.21" y="2912.86" style="font-family:'Helvetica';font-size:112.56px;fill:#000000" text-anchor="middle">40</text>
	<line x1="2074.78" y1="2766.66" x2="2074.78" y2="2811.54" style="stroke:#000000;stroke-width:6.48"/>
	<text x="2074.78" y="2912.86" style="font-family:'Helvetica';font-size:112.56px;fill:#000000" text-anchor="middle">60</text>
	<line x1="2688.53" y1="2766.66" x2="2688.53" y2="2811.54" style="stroke:#000000;stroke-width:6.48"/>
	<text x="2688.53" y="2912.86" style="font-family:'Helvetica';font-size:112.56px;fill:#000000" text-anchor="middle">80</text>
	<line x1="3302.10" y1="2766.66" x2="3302.10" y2="2811.54" style="stroke:#000000;stroke-width:6.48"/>
	<text x="3302.10" y="2912.86" style="font-family:'Helvetica';font-size:112.56px;fill:#000000" text-anchor="middle">100</text>
	<text x="1965.60" y="3070.31" style="font-family:'Helvetica';font-size:112.56px;fill:#000000" text-anchor="middle">age</text>
	<rect x="3412.29" y="1177.71" width="1835.49" height="524.64" style="fill:#FFFFFF"/>
	<rect x="3415.53" y="1180.95" width="1829.01" height="518.16" style="fill:none;stroke:#FFFFFF;stroke-width:6.48"/>
	<rect x="3460.89" y="1226.31" width="259.20" height="112.39" style="fill:#FF8C19;fill-opacity:0.40"/>
	<rect x="3463.32" y="1228.74" width="254.34" height="107.53" style="fill:none;stroke:#5FAAFF;stroke-width:4.86"/>
	<line x1="3460.89" y1="1439.94" x2="3720.09" y2="1439.94" style="stroke:#000000;stroke-width:9.72"/>
	<rect x="3460.89" y="1541.19" width="259.20" height="112.56" style="fill:#198DFF;fill-opacity:0.50"/>
	<rect x="3463.32" y="1543.62" width="254.34" height="107.70" style="fill:none;stroke:#5FAAFF;stroke-width:4.86"/>
	<text x="3787.59" y="1321.94" style="font-family:'Helvetica';font-size:112.56px;fill:#000000">Sampled from Normal</text>
	<text x="3787.59" y="1479.38" style="font-family:'Helvetica';font-size:112.56px;fill:#000000">Theoretical Normal</text>
	<text x="3787.59" y="1636.99" style="font-family:'Helvetica';font-size:112.56px;fill:#000000">Sampled from t-distribution</text>
</svg>
